<?xml version="1.0" standalone="no"?>
<!DOCTYPE svg PUBLIC "-//W3C//DTD SVG 20010904//EN"
 "http://www.w3.org/TR/2001/REC-SVG-20010904/DTD/svg10.dtd">
<svg version="1.0" xmlns="http://www.w3.org/2000/svg"
 width="774.000000pt" height="542.000000pt" viewBox="0 0 774.000000 542.000000"
 preserveAspectRatio="xMidYMid meet">

<g transform="translate(0.000000,542.000000) scale(0.100000,-0.100000)"
fill="#000000" stroke="none">
<path d="M2988 5233 c7 -3 16 -2 19 1 4 3 -2 6 -13 5 -11 0 -14 -3 -6 -6z"/>
<path d="M2919 5226 c-2 -3 -16 -7 -29 -10 -370 -72 -817 -286 -1150 -552
-110 -88 -357 -335 -444 -444 -359 -454 -579 -1005 -627 -1580 -14 -161 -5
-518 16 -635 8 -44 12 -57 10 -30 -14 145 -17 422 -6 545 97 1096 775 2030
1784 2459 153 65 394 141 537 169 43 9 42 9 -25 8 -41 -1 -75 -6 -83 -13 -7
-7 -18 -13 -23 -13 -15 0 -10 18 9 32 10 7 21 21 25 31 3 9 15 17 26 17 11 0
23 5 26 10 6 10 -37 15 -46 6z m-62 -92 c-3 -3 -12 -4 -19 -1 -8 3 -5 6 6 6
11 1 17 -2 13 -5z"/>
<path d="M3094 5171 c3 -5 15 -7 26 -4 28 7 25 13 -6 13 -14 0 -23 -4 -20 -9z"/>
<path d="M3048 4973 c7 -3 16 -2 19 1 4 3 -2 6 -13 5 -11 0 -14 -3 -6 -6z"/>
<path d="M2970 4960 c-8 -5 -25 -10 -36 -10 -45 0 -309 -84 -440 -141 -742
-316 -1304 -981 -1498 -1771 -58 -236 -70 -342 -70 -628 0 -225 3 -285 22
-398 45 -277 118 -512 233 -751 38 -79 71 -142 74 -139 3 2 -9 33 -26 69 -123
254 -207 555 -244 874 -11 92 -8 439 5 540 76 628 337 1167 772 1597 250 247
527 428 893 583 49 21 207 73 245 80 19 4 40 10 45 14 6 3 35 11 65 18 l55 11
-57 -4 c-39 -2 -58 0 -58 8 0 6 -9 3 -20 -7 -22 -20 -36 -15 -27 10 4 8 15 15
26 15 11 0 23 5 26 10 3 6 19 10 36 10 16 0 29 5 29 10 0 13 -30 13 -50 0z"/>
<path d="M2669 3940 c-400 -42 -785 -241 -1046 -540 -261 -297 -403 -676 -403
-1070 0 -448 176 -862 497 -1172 84 -80 191 -166 238 -190 27 -14 20 -8 -40
38 -96 72 -167 140 -243 229 -213 253 -335 522 -384 845 -46 308 10 657 152
940 230 460 633 771 1141 882 89 19 135 22 319 23 221 0 214 9 -15 18 -71 3
-169 2 -216 -3z"/>
<path d="M5980 3525 c0 -14 5 -25 10 -25 6 0 10 11 10 25 0 14 -4 25 -10 25
-5 0 -10 -11 -10 -25z"/>
<path d="M5911 3501 c12 -17 26 -28 31 -25 11 7 -8 31 -35 45 -17 10 -16 7 4
-20z"/>
<path d="M6054 3507 c-15 -14 -23 -27 -17 -30 5 -3 20 7 32 23 26 36 21 38
-15 7z"/>
<path d="M2670 3513 c-180 -18 -380 -92 -545 -201 -88 -58 -230 -194 -296
-283 -271 -366 -308 -891 -91 -1293 136 -252 348 -441 627 -556 143 -60 466
-102 540 -70 17 7 17 9 3 9 -29 1 -21 16 20 36 l37 19 -27 4 c-46 6 -33 30 20
38 26 3 52 10 57 14 6 4 17 10 25 13 8 2 2 2 -15 0 -91 -14 -161 -19 -168 -13
-9 8 -10 337 -1 351 3 5 33 9 67 10 l62 1 -44 9 c-24 5 -45 10 -47 12 -2 2 12
12 31 23 19 10 35 22 35 26 0 5 -25 8 -55 8 -37 0 -55 4 -55 13 -1 6 -1 134
-1 284 1 204 -2 274 -12 280 -16 10 24 21 82 22 l44 1 -28 26 c-15 14 -24 28
-21 31 3 4 36 10 74 13 65 7 65 7 -35 9 -73 1 -103 -2 -106 -11 -2 -7 -3 -4
-1 7 2 11 4 149 4 308 l0 287 83 1 c73 1 77 2 40 10 -41 8 -92 36 -93 52 0 4
48 8 108 9 l107 1 -120 11 -120 11 -3 179 -2 179 70 -5 c47 -4 68 -2 62 4 -6
6 -23 11 -39 11 -22 1 -29 6 -28 22 0 11 4 25 8 32 4 6 2 15 -5 20 -8 5 11 10
47 13 l60 5 -78 13 c-72 11 -195 14 -277 5z m88 -301 c2 -133 0 -173 -10 -176
-7 -2 -85 -9 -173 -15 -88 -6 -189 -18 -225 -25 -36 -8 -69 -10 -74 -6 -10 10
15 78 81 221 47 102 52 106 143 136 60 19 188 42 225 40 l30 -2 3 -173z m-518
1 c0 -5 -20 -64 -43 -132 l-43 -123 -109 -37 c-61 -21 -118 -41 -127 -45 -80
-36 109 195 241 294 65 49 81 58 81 43z m600 -183 c0 -5 -4 -10 -10 -10 -5 0
-10 5 -10 10 0 6 5 10 10 10 6 0 10 -4 10 -10z m20 -61 c0 -11 -4 -18 -10 -14
-5 3 -7 12 -3 20 7 21 13 19 13 -6z m-105 -324 l0 -290 -215 -3 c-118 -2 -248
0 -287 3 l-73 7 0 67 c0 93 18 268 39 365 l16 81 70 17 c94 24 284 46 375 44
l75 -1 0 -290z m-625 186 c0 -5 -6 -42 -14 -83 -8 -40 -19 -143 -26 -228 -7
-85 -13 -156 -14 -157 -2 -3 -135 -5 -239 -4 l-109 1 7 63 c8 70 39 204 60
254 15 35 53 58 210 124 90 39 125 47 125 30z m640 -495 c0 -3 -4 -8 -10 -11
-5 -3 -10 -1 -10 4 0 6 5 11 10 11 6 0 10 -2 10 -4z m97 -48 c-3 -7 -5 -2 -5
12 0 14 2 19 5 13 2 -7 2 -19 0 -25z m-119 -26 c9 -2 12 -69 12 -297 l0 -295
-82 5 c-169 11 -411 48 -434 66 -23 19 -64 298 -64 441 l0 78 253 2 c245 3
288 3 315 0z m-673 -14 c2 -7 9 -73 15 -147 5 -74 17 -174 25 -223 9 -49 13
-93 10 -98 -8 -12 -93 19 -221 81 l-100 49 -19 57 c-36 116 -63 263 -50 283
10 16 334 14 340 -2z m-38 -548 l118 -39 42 -123 c47 -136 47 -138 32 -138
-43 0 -329 288 -329 331 0 14 11 11 137 -31z m813 -44 c0 -3 -4 -8 -10 -11 -5
-3 -10 -1 -10 4 0 6 5 11 10 11 6 0 10 -2 10 -4z m-454 -41 c49 -8 150 -19
224 -23 l135 -7 3 -177 2 -178 -32 0 c-76 0 -252 40 -308 70 -21 11 -85 138
-125 248 -14 38 -25 72 -25 76 0 9 28 7 126 -9z m458 -10 c-4 -8 -8 -15 -10
-15 -2 0 -4 7 -4 15 0 8 4 15 10 15 5 0 7 -7 4 -15z"/>
<path d="M3058 3483 c7 -3 16 -2 19 1 4 3 -2 6 -13 5 -11 0 -14 -3 -6 -6z"/>
<path d="M3110 3470 c0 -5 5 -10 10 -10 6 0 10 5 10 10 0 6 -4 10 -10 10 -5 0
-10 -4 -10 -10z"/>
<path d="M5952 3468 c-7 -7 -12 -21 -12 -33 0 -28 19 -45 50 -45 31 0 50 17
50 45 0 28 -19 45 -50 45 -14 0 -31 -5 -38 -12z"/>
<path d="M5880 3441 l-35 -7 38 -5 c26 -4 37 -1 37 8 0 7 -1 12 -2 12 -2 -1
-19 -5 -38 -8z"/>
<path d="M6060 3435 c0 -7 14 -9 35 -7 19 2 35 5 35 7 0 2 -16 5 -35 7 -21 2
-35 0 -35 -7z"/>
<path d="M3640 3140 l0 -280 65 0 65 0 0 280 0 280 -65 0 -65 0 0 -280z"/>
<path d="M3870 3140 l0 -280 215 0 215 0 0 50 0 50 -150 0 -150 0 0 65 0 65
130 0 130 0 0 50 0 50 -130 0 -130 0 0 65 0 65 145 0 145 0 0 50 0 50 -210 0
-210 0 0 -280z"/>
<path d="M4380 3140 l0 -280 215 0 215 0 0 50 0 50 -150 0 -150 0 0 65 0 65
130 0 130 0 0 50 0 50 -130 0 -130 0 0 65 0 65 145 0 145 0 0 50 0 50 -210 0
-210 0 0 -280z"/>
<path d="M4880 3140 l0 -280 215 0 215 0 0 50 0 50 -150 0 -150 0 0 65 0 65
130 0 130 0 0 50 0 50 -130 0 -130 0 0 65 0 65 145 0 145 0 0 50 0 50 -210 0
-210 0 0 -280z"/>
<path d="M5910 3368 l-23 -31 32 19 c32 19 38 29 23 38 -5 3 -19 -9 -32 -26z"/>
<path d="M6035 3390 c-5 -8 -2 -16 9 -22 20 -11 21 -44 0 -52 -9 -3 -14 -15
-12 -28 3 -21 9 -23 68 -26 83 -4 110 3 110 29 0 11 -7 22 -15 25 -8 4 -15 14
-15 24 0 18 -35 30 -88 30 -13 0 -30 7 -37 17 -9 12 -14 13 -20 3z"/>
<path d="M3013 3373 c9 -2 23 -2 30 0 6 3 -1 5 -18 5 -16 0 -22 -2 -12 -5z"/>
<path d="M5980 3345 c0 -14 5 -25 10 -25 6 0 10 11 10 25 0 14 -4 25 -10 25
-5 0 -10 -11 -10 -25z"/>
<path d="M6755 3210 c3 -5 8 -10 11 -10 2 0 4 5 4 10 0 6 -5 10 -11 10 -5 0
-7 -4 -4 -10z"/>
<path d="M6820 3209 c0 -5 5 -7 10 -4 6 3 10 8 10 11 0 2 -4 4 -10 4 -5 0 -10
-5 -10 -11z"/>
<path d="M7141 3138 c-1 -72 -4 -88 -16 -88 -9 0 -46 -20 -83 -45 -37 -25 -63
-45 -59 -45 4 0 40 17 80 37 39 20 79 37 87 37 8 0 43 -15 77 -32 83 -42 88
-40 20 8 -30 22 -63 40 -71 40 -13 0 -16 13 -17 68 -1 105 -17 123 -18 20z"/>
<path d="M6700 3181 c0 -5 5 -13 10 -16 6 -3 10 -2 10 4 0 5 -4 13 -10 16 -5
3 -10 2 -10 -4z"/>
<path d="M5687 3160 c-14 -11 -28 -34 -32 -50 -4 -19 -17 -36 -35 -45 -15 -8
-30 -24 -33 -37 -8 -29 17 -68 43 -68 11 0 32 -13 47 -30 14 -16 32 -30 39
-30 6 0 22 -8 34 -18 21 -17 22 -24 16 -75 -4 -31 -12 -57 -18 -57 -5 0 -27
-12 -49 -27 -38 -27 -39 -29 -39 -90 l0 -63 116 0 116 0 -4 -169 c-3 -163 -4
-170 -27 -195 -38 -40 -84 -33 -144 23 l-29 26 -44 -50 c-24 -27 -44 -56 -44
-62 0 -21 77 -70 132 -83 60 -15 174 -8 215 13 32 17 64 50 84 87 10 18 15 87
19 260 l5 235 55 0 55 0 3 -297 2 -298 249 0 249 0 4 61 c1 33 1 63 -1 65 -2
2 -80 4 -173 4 l-169 0 3 68 3 67 148 3 147 3 0 59 0 60 -150 0 -150 0 0 60 0
60 170 0 170 0 0 45 0 45 96 0 96 0 -50 -55 c-60 -65 -86 -133 -86 -225 0
-209 160 -344 387 -327 89 7 157 33 205 80 l32 31 -37 39 c-59 60 -69 63 -108
28 -33 -29 -89 -51 -130 -51 -11 0 -43 11 -72 24 -148 69 -141 298 12 356 65
25 165 3 204 -44 8 -9 18 -16 23 -16 11 0 108 82 108 91 0 18 -137 141 -162
146 l-28 6 -1 91 c0 50 -4 114 -9 141 -6 38 -8 18 -9 -88 l-1 -138 -42 1 c-24
1 -53 -2 -65 -5 -13 -4 -23 -3 -23 3 0 12 -38 23 -45 12 -8 -12 -201 -6 -217
8 -11 9 -17 9 -26 0 -7 -7 -29 -14 -50 -15 -20 -1 -58 -5 -84 -9 -39 -5 -49
-3 -54 11 -5 12 -9 13 -14 5 -11 -18 -50 -2 -50 21 0 14 7 19 30 19 17 0 30
-5 30 -12 0 -6 3 -8 7 -5 3 4 5 34 4 67 -3 76 5 104 27 95 10 -3 -13 25 -50
62 l-68 68 -65 -65 c-44 -43 -61 -67 -55 -75 5 -6 12 -50 15 -97 l5 -85 -27
-2 c-123 -7 -203 -1 -203 16 0 19 -21 27 -31 12 -6 -9 -3 -18 8 -26 15 -12 15
-13 1 -13 -9 0 -20 5 -24 11 -4 7 -21 9 -46 5 -34 -6 -40 -4 -45 14 -7 25 -33
26 -33 1 0 -24 -19 -31 -80 -31 -30 0 -52 5 -60 15 -7 8 -16 12 -21 9 -5 -3
-9 22 -9 55 0 47 4 62 18 70 15 9 15 10 1 11 -12 0 -16 8 -15 25 1 27 11 33
19 13 4 -10 7 -10 18 0 17 16 29 15 29 -2 0 -8 -7 -17 -16 -20 -9 -4 -14 -9
-10 -13 3 -4 19 5 34 19 15 14 41 32 57 39 42 20 47 70 10 95 -20 13 -25 24
-22 41 6 32 -14 56 -49 55 -16 0 -38 7 -49 14 -29 20 -88 17 -118 -6z m41
-226 c32 -16 42 -34 19 -34 -17 0 -57 29 -57 41 0 12 2 12 38 -7z m742 -64 l0
-60 -35 0 -35 0 0 60 0 60 35 0 35 0 0 -60z m-10 -95 c0 -31 -18 -41 -37 -22
-12 11 -22 13 -39 6 -21 -7 -24 -6 -24 15 0 22 4 24 50 24 46 1 50 -1 50 -23z"/>
<path d="M6875 3170 c4 -6 11 -8 16 -5 14 9 11 15 -7 15 -8 0 -12 -5 -9 -10z"/>
<path d="M6820 3074 c0 -8 5 -12 10 -9 6 4 8 11 5 16 -9 14 -15 11 -15 -7z"/>
<path d="M6687 3070 c6 -7 9 -18 7 -25 -3 -7 0 -16 6 -20 8 -5 10 2 8 21 -2
15 -10 29 -18 32 -12 3 -12 2 -3 -8z"/>
<path d="M6760 3070 c0 -5 5 -10 11 -10 5 0 7 5 4 10 -3 6 -8 10 -11 10 -2 0
-4 -4 -4 -10z"/>
<path d="M6894 3072 c-6 -4 -7 -17 -3 -32 6 -21 7 -22 8 -4 1 11 6 25 13 32
13 13 0 16 -18 4z"/>
<path d="M3178 2993 c6 -2 18 -2 25 0 6 3 1 5 -13 5 -14 0 -19 -2 -12 -5z"/>
<path d="M5943 2843 c-10 -16 -25 -33 -33 -40 -12 -9 -12 -14 -3 -24 10 -10
16 -9 31 4 23 21 36 21 52 2 7 -8 28 -15 47 -15 21 0 36 6 39 15 8 20 33 19
56 -2 32 -28 43 -1 13 33 -14 16 -30 35 -36 42 -6 7 -36 12 -79 12 -65 0 -71
-2 -87 -27z m87 2 c0 -10 -11 -15 -35 -15 -33 0 -43 8 -28 23 13 14 63 7 63
-8z m78 -2 c2 -9 -8 -13 -32 -13 -26 0 -36 4 -36 16 0 19 61 16 68 -3z"/>
<path d="M6720 2830 c0 -5 7 -7 15 -4 8 4 15 8 15 10 0 2 -7 4 -15 4 -8 0 -15
-4 -15 -10z"/>
<path d="M5037 2709 c-48 -11 -107 -41 -129 -66 -47 -52 -61 -151 -30 -213 26
-52 84 -86 205 -118 142 -38 177 -72 126 -118 -17 -15 -36 -19 -93 -19 -61 0
-82 5 -139 33 -37 18 -71 31 -76 28 -5 -3 -19 -31 -32 -62 l-23 -57 23 -19
c45 -36 128 -53 256 -53 116 0 122 1 175 31 72 41 100 87 100 169 0 108 -42
148 -206 191 -147 39 -178 60 -153 106 27 51 124 58 218 17 24 -10 50 -19 57
-19 11 0 64 97 64 116 0 9 -81 43 -128 53 -61 13 -160 13 -215 0z"/>
<path d="M3630 2380 l0 -330 85 0 84 0 3 88 3 87 120 5 c108 5 125 9 172 34
77 43 107 91 112 183 4 94 -16 150 -70 197 -63 53 -126 66 -332 66 l-177 0 0
-330z m319 190 c74 -21 108 -88 76 -150 -22 -42 -68 -60 -155 -60 l-70 0 0
103 c0 57 3 107 7 110 10 10 103 8 142 -3z"/>
<path d="M4290 2380 l0 -330 260 0 260 0 0 65 0 65 -175 0 -175 0 0 70 0 70
150 0 150 0 0 60 0 59 -147 3 -148 3 -3 68 -3 67 171 0 170 0 0 65 0 65 -255
0 -255 0 0 -330z"/>
<path d="M1501 2684 c0 -11 3 -14 6 -6 3 7 2 16 -1 19 -3 4 -6 -2 -5 -13z"/>
<path d="M1471 2594 c-36 -139 -44 -206 -44 -364 0 -185 18 -299 74 -457 113
-319 361 -603 658 -753 383 -192 835 -191 1216 2 143 73 306 196 386 293 21
25 7 16 -37 -26 -196 -187 -417 -300 -690 -355 -134 -27 -377 -24 -509 6 -262
59 -474 173 -667 358 -339 327 -485 809 -382 1261 16 69 12 98 -5 35z"/>
<path d="M4310 1875 c0 -33 -1 -34 -30 -29 -67 14 -121 -44 -104 -111 10 -40
41 -54 117 -54 l67 1 0 114 0 114 -25 0 c-22 0 -25 -4 -25 -35z m-12 -77 c17
-17 15 -48 -5 -70 -20 -22 -31 -23 -55 -1 -34 31 -17 83 27 83 12 0 26 -5 33
-12z"/>
<path d="M5920 1795 l0 -115 25 0 c22 0 24 4 27 56 2 41 8 60 21 68 32 20 52
-4 55 -68 3 -53 4 -56 29 -56 25 0 25 1 21 64 -5 86 -26 110 -85 103 l-43 -5
0 34 c0 30 -3 34 -25 34 l-25 0 0 -115z"/>
<path d="M6430 1795 l0 -115 25 0 c22 0 24 4 27 56 2 41 8 60 21 68 32 20 52
-4 55 -68 3 -53 4 -56 29 -56 25 0 25 1 21 64 -5 86 -26 110 -85 103 l-43 -5
0 34 c0 30 -3 34 -25 34 l-25 0 0 -115z"/>
<path d="M3676 1879 c-29 -23 -34 -59 -11 -82 8 -9 38 -23 65 -32 51 -17 58
-30 27 -49 -11 -7 -27 -7 -53 3 -27 10 -39 10 -47 1 -20 -20 21 -40 80 -40 40
0 58 5 73 20 41 41 23 75 -51 100 -40 13 -54 22 -54 36 0 16 8 19 54 19 60 0
79 18 36 35 -42 16 -90 12 -119 -11z"/>
<path d="M5000 1790 l0 -110 83 0 c69 0 87 3 100 18 21 23 22 56 2 72 -11 9
-12 17 -5 30 16 29 12 58 -10 80 -16 16 -33 20 -95 20 l-75 0 0 -110z m138 46
c5 -24 -14 -36 -55 -36 -30 0 -33 3 -33 31 0 29 1 30 42 27 33 -2 44 -8 46
-22z m-7 -76 c42 -23 17 -50 -47 -50 -31 0 -34 3 -34 30 0 27 3 30 31 30 17 0
39 -5 50 -10z"/>
<path d="M6258 1884 c-54 -29 -73 -101 -41 -154 21 -35 52 -50 107 -50 53 0
97 28 74 48 -12 9 -21 9 -45 -3 -75 -37 -140 56 -80 113 26 25 58 28 87 10 16
-10 23 -10 36 4 15 15 14 17 -14 32 -38 20 -88 20 -124 0z"/>
<path d="M3853 1860 c-3 -11 -9 -20 -14 -20 -5 0 -9 -7 -9 -15 0 -8 5 -15 10
-15 6 0 10 -21 10 -46 0 -67 13 -84 61 -84 33 0 40 3 37 17 -2 10 -12 18 -23
18 -17 0 -21 8 -23 48 -3 42 -1 47 17 47 12 0 21 7 21 15 0 8 -9 15 -20 15
-13 0 -20 7 -20 20 0 14 -7 20 -21 20 -12 0 -23 -8 -26 -20z"/>
<path d="M4793 1860 c-3 -11 -9 -20 -14 -20 -5 0 -9 -7 -9 -15 0 -8 5 -15 10
-15 6 0 10 -21 10 -46 0 -67 13 -84 61 -84 33 0 40 3 37 17 -2 10 -12 18 -23
18 -17 0 -21 8 -23 48 -3 42 -1 47 17 47 12 0 21 7 21 15 0 8 -9 15 -20 15
-13 0 -20 7 -20 20 0 14 -7 20 -21 20 -12 0 -23 -8 -26 -20z"/>
<path d="M7040 1860 c0 -11 -7 -20 -15 -20 -8 0 -15 -7 -15 -15 0 -8 7 -15 15
-15 11 0 15 -13 15 -53 0 -63 11 -77 63 -77 31 0 38 3 35 17 -2 10 -12 18 -23
18 -17 0 -21 8 -23 48 -3 42 -1 47 17 47 12 0 21 7 21 15 0 8 -8 15 -19 15
-10 0 -21 9 -24 20 -3 12 -14 20 -26 20 -14 0 -21 -6 -21 -20z"/>
<path d="M3972 1781 c5 -92 14 -101 99 -101 l69 0 0 85 c0 84 0 85 -25 85 -24
0 -25 -3 -25 -60 0 -65 -17 -88 -52 -69 -14 8 -18 22 -18 69 0 58 -1 60 -26
60 -26 0 -26 0 -22 -69z"/>
<path d="M4413 1826 c-37 -32 -39 -99 -4 -127 28 -23 113 -26 130 -5 17 20
-13 43 -34 26 -19 -15 -65 -5 -65 15 0 12 14 15 60 15 65 0 70 6 49 53 -23 50
-91 61 -136 23z m87 -20 c0 -2 3 -11 6 -20 5 -13 -2 -16 -35 -16 -42 0 -50 7
-29 28 11 11 58 17 58 8z"/>
<path d="M4580 1763 c0 -81 0 -83 25 -83 22 0 24 4 27 56 3 60 20 83 52 71 12
-5 16 -20 16 -67 0 -58 1 -60 26 -60 26 0 26 0 22 71 -5 88 -15 98 -104 97
l-64 -1 0 -84z"/>
<path d="M5230 1764 c0 -82 0 -84 25 -84 22 0 24 4 27 58 3 48 7 59 26 67 12
5 22 17 22 26 0 13 -10 17 -50 17 l-50 0 0 -84z"/>
<path d="M5364 1836 c-26 -19 -11 -31 39 -31 32 0 42 -4 45 -17 3 -15 -4 -18
-37 -18 -40 0 -71 -19 -71 -45 0 -31 31 -45 97 -45 l65 0 -4 71 c-3 55 -8 74
-23 85 -24 18 -86 18 -111 0z m84 -103 c-4 -21 -36 -29 -51 -14 -9 9 -8 14 3
21 25 16 52 12 48 -7z"/>
<path d="M5540 1763 c0 -81 0 -83 25 -83 22 0 24 4 27 56 3 60 20 83 52 71 12
-5 16 -20 16 -67 0 -58 1 -60 26 -60 26 0 26 0 22 71 -5 88 -15 98 -104 97
l-64 -1 0 -84z"/>
<path d="M5784 1838 c-47 -22 -57 -95 -19 -133 31 -32 103 -35 129 -6 17 18
16 19 -3 26 -11 3 -29 1 -41 -5 -32 -17 -62 4 -58 42 4 41 29 56 61 39 27 -14
47 -8 47 14 0 31 -71 45 -116 23z"/>
<path d="M6654 1836 c-26 -19 -11 -31 39 -31 32 0 42 -4 45 -17 3 -15 -4 -18
-37 -18 -40 0 -71 -19 -71 -45 0 -31 31 -45 97 -45 l65 0 -4 71 c-3 55 -8 74
-23 85 -24 18 -86 18 -111 0z m84 -103 c-4 -21 -36 -29 -51 -14 -9 9 -8 14 3
21 25 16 52 12 48 -7z"/>
<path d="M6820 1734 l0 -114 25 0 c22 0 25 4 25 33 0 32 0 32 44 29 38 -3 49
0 70 22 28 27 33 60 15 100 -15 32 -50 45 -121 45 l-58 -1 0 -114z m128 64
c17 -17 15 -48 -5 -70 -20 -22 -31 -23 -55 -1 -34 31 -17 83 27 83 12 0 26 -5
33 -12z"/>
<path d="M7194 1838 c-25 -12 -44 -48 -44 -84 0 -39 42 -74 89 -74 49 0 71 8
71 25 0 21 -17 27 -41 14 -16 -8 -28 -8 -45 0 -43 19 -26 31 42 31 l66 0 -6
28 c-14 57 -78 87 -132 60z m74 -40 c21 -21 13 -28 -28 -28 -22 0 -40 4 -40 8
0 14 23 32 40 32 9 0 21 -5 28 -12z"/>
<path d="M7340 1764 c0 -83 0 -84 25 -84 24 0 25 3 25 53 0 55 12 77 42 77 11
0 18 7 18 19 0 17 -7 20 -55 20 l-55 0 0 -85z"/>
<path d="M3013 1673 c9 -2 25 -2 35 0 9 3 1 5 -18 5 -19 0 -27 -2 -17 -5z"/>
<path d="M3078 1253 c7 -3 16 -2 19 1 4 3 -2 6 -13 5 -11 0 -14 -3 -6 -6z"/>
<path d="M2950 1123 c-22 -11 -19 -12 25 -7 28 4 53 10 58 14 13 12 -58 6 -83
-7z"/>
<path d="M1275 1080 c9 -16 18 -30 21 -30 2 0 -2 14 -11 30 -9 17 -18 30 -21
30 -2 0 2 -13 11 -30z"/>
<path d="M5425 748 c-45 -16 -74 -47 -86 -92 -20 -75 29 -129 158 -171 72 -23
96 -44 96 -85 0 -46 -40 -80 -94 -80 -56 0 -98 24 -106 60 -5 26 -10 30 -40
30 -33 0 -35 -2 -29 -27 18 -75 70 -107 171 -107 113 1 165 43 165 132 0 60
-27 85 -134 127 -103 40 -126 58 -126 99 0 44 40 76 95 76 35 0 52 -6 70 -25
14 -13 25 -29 25 -35 0 -5 16 -10 35 -10 19 0 35 4 35 9 0 19 -48 77 -75 90
-39 19 -122 24 -160 9z"/>
<path d="M750 514 l0 -235 33 3 32 3 3 96 3 97 82 4 c91 5 118 17 149 66 16
26 19 44 16 83 -9 93 -58 119 -220 119 l-98 0 0 -236z m192 185 c70 -19 87
-104 31 -149 -20 -15 -41 -20 -89 -20 l-64 0 0 90 0 90 43 0 c23 0 59 -5 79
-11z"/>
<path d="M2755 725 c-32 -31 -33 -87 -4 -135 15 -24 18 -35 9 -38 -32 -11 -81
-67 -91 -104 -36 -134 125 -225 246 -140 l45 32 28 -31 c16 -18 35 -30 46 -28
15 3 12 11 -19 47 l-37 42 13 49 c12 48 7 87 -10 77 -5 -4 -12 -24 -16 -47 -4
-22 -11 -39 -16 -37 -4 2 -33 32 -62 67 l-54 64 45 43 c42 41 44 45 39 86 -7
55 -35 78 -94 78 -33 0 -50 -6 -68 -25z m109 -21 c24 -23 20 -71 -9 -99 -13
-14 -31 -25 -39 -25 -22 0 -49 46 -49 82 0 51 62 78 97 42z m-2 -249 c35 -42
63 -81 63 -87 0 -24 -66 -58 -112 -58 -76 0 -130 74 -103 140 12 30 63 80 80
80 5 0 38 -34 72 -75z"/>
<path d="M3280 515 l0 -235 145 0 145 0 0 25 0 25 -115 0 -115 0 0 85 0 85
105 0 105 0 0 25 0 25 -105 0 -105 0 0 75 0 75 110 0 110 0 0 25 0 25 -140 0
-140 0 0 -235z"/>
<path d="M6410 715 c0 -32 2 -35 30 -35 28 0 30 3 30 35 0 32 -2 35 -30 35
-28 0 -30 -3 -30 -35z"/>
<path d="M7453 725 c-106 -46 -65 -215 52 -215 119 0 158 171 50 216 -42 17
-61 17 -102 -1z m117 -43 c46 -58 7 -146 -65 -146 -72 0 -111 88 -65 147 33
42 97 42 130 -1z"/>
<path d="M7460 625 c0 -42 3 -55 15 -55 8 0 15 9 15 20 0 11 6 20 14 20 7 0
16 -9 19 -20 3 -11 12 -20 21 -20 13 0 14 5 6 26 -7 19 -7 31 1 40 18 22 -7
44 -52 44 l-39 0 0 -55z m63 20 c1 -5 -6 -11 -15 -13 -11 -2 -18 3 -18 13 0
17 30 18 33 0z"/>
<path d="M6908 679 c-11 -6 -18 -22 -18 -39 0 -27 -3 -30 -30 -30 -23 0 -30
-4 -30 -20 0 -15 7 -20 29 -20 l29 0 4 -125 c4 -155 17 -173 116 -167 15 2 22
8 22 22 0 16 -7 20 -30 20 -42 0 -50 23 -50 144 l0 106 34 0 c34 0 35 0 74
-102 82 -214 76 -187 53 -246 -12 -29 -21 -55 -21 -57 0 -3 13 -5 28 -5 28 0
30 5 109 223 64 174 78 223 67 225 -31 7 -43 -10 -84 -127 -24 -67 -46 -121
-49 -121 -3 0 -26 56 -51 125 l-45 125 -57 0 -58 0 0 40 c0 42 -10 48 -42 29z"/>
<path d="M1150 598 c-81 -41 -112 -144 -71 -234 55 -120 225 -120 288 -1 19
38 18 128 -2 171 -35 74 -137 104 -215 64z m132 -47 c28 -25 32 -35 35 -92 3
-51 0 -70 -16 -97 -72 -114 -209 -11 -171 128 23 86 93 114 152 61z"/>
<path d="M2040 608 c-76 -20 -104 -73 -98 -182 3 -67 7 -78 33 -106 58 -60
155 -62 213 -4 39 39 42 64 7 64 -17 0 -29 -9 -40 -30 -38 -74 -148 -35 -157
55 l-3 30 119 3 119 3 -7 46 c-13 100 -86 147 -186 121z m104 -59 c14 -17 26
-41 26 -55 0 -24 -2 -24 -85 -24 -85 0 -85 0 -85 26 0 15 12 38 29 55 40 40
81 39 115 -2z"/>
<path d="M3743 606 c-18 -8 -33 -20 -33 -26 0 -5 -4 -10 -10 -10 -5 0 -10 9
-10 21 0 16 -5 20 -27 17 l-28 -3 0 -160 0 -160 28 -3 27 -3 0 104 c0 121 11
162 51 182 39 21 56 19 84 -10 24 -23 25 -30 25 -150 l0 -125 31 0 31 0 -4
140 c-3 135 -4 140 -29 166 -32 31 -91 40 -136 20z"/>
<path d="M4095 613 c-85 -16 -120 -65 -120 -168 1 -118 45 -170 145 -169 66 1
94 14 120 57 26 42 25 47 -7 47 -20 0 -33 -8 -45 -30 -43 -75 -147 -39 -152
52 l-1 33 115 5 115 5 -3 35 c-5 51 -27 96 -54 113 -25 16 -80 26 -113 20z
m67 -44 c22 -12 52 -74 43 -89 -8 -13 -175 -13 -175 -1 0 20 20 61 40 81 22
22 60 26 92 9z"/>
<path d="M4615 610 c-51 -11 -72 -28 -95 -75 -28 -58 -25 -150 6 -193 48 -64
138 -78 186 -27 13 14 26 25 29 25 10 0 -1 -92 -13 -117 -24 -49 -110 -54
-147 -7 -11 14 -29 24 -45 24 -30 0 -29 0 -16 -34 24 -63 142 -88 215 -45 60
36 65 55 65 264 l0 186 -27 -3 c-16 -2 -27 -8 -25 -15 3 -17 -23 -16 -37 1
-14 17 -56 24 -96 16z m94 -53 c20 -17 41 -71 41 -104 -1 -46 -36 -112 -67
-124 -82 -31 -143 60 -113 170 18 69 90 99 139 58z"/>
<path d="M5790 598 c-60 -31 -85 -76 -85 -153 1 -96 38 -147 122 -166 74 -16
144 17 180 85 22 41 20 127 -4 173 -39 74 -134 102 -213 61z m132 -47 c32 -28
33 -32 33 -104 0 -61 -4 -79 -20 -97 -30 -33 -62 -42 -102 -29 -77 25 -93 172
-26 235 35 33 75 31 115 -5z"/>
<path d="M6151 602 c-54 -27 -74 -63 -79 -136 -7 -114 34 -178 123 -191 75
-12 155 40 155 100 0 28 -44 16 -65 -18 -17 -26 -28 -33 -60 -35 -33 -2 -45 2
-65 23 -22 23 -25 36 -25 100 0 64 3 77 24 99 13 14 33 28 43 32 30 9 75 -15
88 -47 9 -20 19 -29 36 -29 32 0 36 11 16 51 -20 40 -72 69 -122 69 -19 0 -50
-8 -69 -18z"/>
<path d="M6645 610 c-81 -18 -109 -61 -109 -165 0 -119 43 -170 144 -169 66 1
94 14 120 57 26 42 25 47 -7 47 -20 0 -33 -8 -45 -30 -28 -49 -103 -53 -133
-6 -9 13 -19 40 -22 60 l-6 35 119 3 119 3 -3 35 c-11 104 -77 153 -177 130z
m84 -47 c22 -18 44 -77 33 -87 -10 -11 -172 -6 -172 4 0 23 29 79 47 89 27 16
68 13 92 -6z"/>
<path d="M1414 583 c4 -15 26 -89 49 -163 l43 -135 35 -3 36 -3 33 108 c54
179 47 176 95 28 l42 -130 34 0 34 0 42 130 c24 72 46 145 49 163 6 31 5 33
-17 30 -25 -3 -30 -14 -75 -161 -15 -48 -29 -85 -33 -82 -3 4 -22 59 -42 123
l-37 117 -38 0 -38 0 -34 -110 c-46 -152 -43 -143 -53 -120 -4 11 -23 67 -41
125 -31 99 -35 105 -62 108 -26 3 -27 2 -22 -25z"/>
<path d="M2294 597 c-2 -7 -3 -80 -2 -162 l3 -150 28 -3 27 -3 0 116 c0 110 1
117 25 140 15 16 36 25 54 25 33 0 44 10 35 34 -8 21 -67 21 -84 1 -7 -8 -16
-15 -21 -15 -5 0 -9 7 -9 15 0 19 -49 21 -56 2z"/>
<path d="M4330 444 l0 -165 28 3 27 3 5 123 c6 138 13 152 77 152 29 0 33 3
33 25 0 22 -4 25 -33 25 -18 0 -42 -7 -54 -15 -19 -13 -22 -13 -27 0 -3 8 -17
15 -31 15 l-25 0 0 -166z"/>
<path d="M4840 601 c0 -5 27 -79 61 -166 65 -171 64 -159 24 -257 -6 -15 -2
-18 22 -18 30 0 30 2 106 208 41 114 79 215 83 225 6 16 2 18 -21 15 -26 -3
-31 -12 -73 -126 -25 -67 -49 -119 -53 -115 -3 5 -26 61 -50 126 -41 111 -45
117 -71 117 -15 0 -28 -4 -28 -9z"/>
<path d="M6410 445 l0 -166 28 3 27 3 0 160 0 160 -27 3 -28 3 0 -166z"/>
</g>
</svg>
